<svg id="visual" viewBox="0 0 900 600" width="900" height="600" xmlns="http://www.w3.org/2000/svg" xmlns:xlink="http://www.w3.org/1999/xlink" version="1.1"><path d="M0 201L21.5 217.8C43 234.7 86 268.3 128.8 282C171.7 295.7 214.3 289.3 257.2 278.8C300 268.3 343 253.7 385.8 246.3C428.7 239 471.3 239 514.2 249.2C557 259.3 600 279.7 642.8 284.5C685.7 289.3 728.3 278.7 771.2 276.7C814 274.7 857 281.3 878.5 284.7L900 288L900 0L878.5 0C857 0 814 0 771.2 0C728.3 0 685.7 0 642.8 0C600 0 557 0 514.2 0C471.3 0 428.7 0 385.8 0C343 0 300 0 257.2 0C214.3 0 171.7 0 128.8 0C86 0 43 0 21.5 0L0 0Z" fill="#d276d5"></path><path d="M0 232L21.5 235.3C43 238.7 86 245.3 128.8 245.8C171.7 246.3 214.3 240.7 257.2 231.5C300 222.3 343 209.7 385.8 202.3C428.7 195 471.3 193 514.2 199.2C557 205.3 600 219.7 642.8 227.2C685.7 234.7 728.3 235.3 771.2 231.2C814 227 857 218 878.5 213.5L900 209L900 0L878.5 0C857 0 814 0 771.2 0C728.3 0 685.7 0 642.8 0C600 0 557 0 514.2 0C471.3 0 428.7 0 385.8 0C343 0 300 0 257.2 0C214.3 0 171.7 0 128.8 0C86 0 43 0 21.5 0L0 0Z" fill="#b866bb"></path><path d="M0 138L21.5 138.8C43 139.7 86 141.3 128.8 152.2C171.7 163 214.3 183 257.2 189.7C300 196.3 343 189.7 385.8 179C428.7 168.3 471.3 153.7 514.2 150.8C557 148 600 157 642.8 165.8C685.7 174.7 728.3 183.3 771.2 192C814 200.7 857 209.3 878.5 213.7L900 218L900 0L878.5 0C857 0 814 0 771.2 0C728.3 0 685.7 0 642.8 0C600 0 557 0 514.2 0C471.3 0 428.7 0 385.8 0C343 0 300 0 257.2 0C214.3 0 171.7 0 128.8 0C86 0 43 0 21.5 0L0 0Z" fill="#9e56a2"></path><path d="M0 134L21.5 137.5C43 141 86 148 128.8 151.7C171.7 155.3 214.3 155.7 257.2 151.7C300 147.7 343 139.3 385.8 136.5C428.7 133.7 471.3 136.3 514.2 141C557 145.7 600 152.3 642.8 154C685.7 155.7 728.3 152.3 771.2 144C814 135.7 857 122.3 878.5 115.7L900 109L900 0L878.5 0C857 0 814 0 771.2 0C728.3 0 685.7 0 642.8 0C600 0 557 0 514.2 0C471.3 0 428.7 0 385.8 0C343 0 300 0 257.2 0C214.3 0 171.7 0 128.8 0C86 0 43 0 21.5 0L0 0Z" fill="#85468a"></path><path d="M0 135L21.5 131.5C43 128 86 121 128.8 122.5C171.7 124 214.3 134 257.2 131.5C300 129 343 114 385.8 110.3C428.7 106.7 471.3 114.3 514.2 121.7C557 129 600 136 642.8 129.3C685.7 122.7 728.3 102.3 771.2 97C814 91.7 857 101.3 878.5 106.2L900 111L900 0L878.5 0C857 0 814 0 771.2 0C728.3 0 685.7 0 642.8 0C600 0 557 0 514.2 0C471.3 0 428.7 0 385.8 0C343 0 300 0 257.2 0C214.3 0 171.7 0 128.8 0C86 0 43 0 21.5 0L0 0Z" fill="#6d3773"></path><path d="M0 95L21.5 89C43 83 86 71 128.8 69.3C171.7 67.7 214.3 76.3 257.2 81C300 85.7 343 86.3 385.8 87.8C428.7 89.3 471.3 91.7 514.2 91.5C557 91.3 600 88.7 642.8 84.8C685.7 81 728.3 76 771.2 79.2C814 82.3 857 93.7 878.5 99.3L900 105L900 0L878.5 0C857 0 814 0 771.2 0C728.3 0 685.7 0 642.8 0C600 0 557 0 514.2 0C471.3 0 428.7 0 385.8 0C343 0 300 0 257.2 0C214.3 0 171.7 0 128.8 0C86 0 43 0 21.5 0L0 0Z" fill="#57295c"></path><path d="M0 54L21.5 55.3C43 56.7 86 59.3 128.8 55C171.7 50.7 214.3 39.3 257.2 36.7C300 34 343 40 385.8 40.8C428.7 41.7 471.3 37.3 514.2 37.7C557 38 600 43 642.8 47.7C685.7 52.3 728.3 56.7 771.2 57.5C814 58.3 857 55.7 878.5 54.3L900 53L900 0L878.5 0C857 0 814 0 771.2 0C728.3 0 685.7 0 642.8 0C600 0 557 0 514.2 0C471.3 0 428.7 0 385.8 0C343 0 300 0 257.2 0C214.3 0 171.7 0 128.8 0C86 0 43 0 21.5 0L0 0Z" fill="#411b46"></path></svg>